<?xml version="1.0" encoding="UTF-8" standalone="no"?>
<!DOCTYPE svg PUBLIC "-//W3C//DTD SVG 1.1//EN"
 "http://www.w3.org/Graphics/SVG/1.1/DTD/svg11.dtd">
<!-- Generated by graphviz version 2.43.0 (0)
 -->
<!-- Title: %3 Pages: 1 -->
<svg width="362pt" height="86pt"
 viewBox="0.00 0.00 362.00 86.00" xmlns="http://www.w3.org/2000/svg" xmlns:xlink="http://www.w3.org/1999/xlink">
<g id="graph0" class="graph" transform="scale(1 1) rotate(0) translate(4 82)">
<title>%3</title>
<polygon fill="white" stroke="transparent" points="-4,4 -4,-82 358,-82 358,4 -4,4"/>
<!-- a -->
<g id="node1" class="node">
<title>a</title>
<ellipse fill="none" stroke="black" cx="27" cy="-25" rx="27" ry="18"/>
<text text-anchor="middle" x="27" y="-21.3" font-family="Times,serif" font-size="14.00">a</text>
</g>
<!-- b -->
<g id="node2" class="node">
<title>b</title>
<ellipse fill="none" stroke="black" cx="127" cy="-60" rx="27" ry="18"/>
<text text-anchor="middle" x="127" y="-56.3" font-family="Times,serif" font-size="14.00">b</text>
</g>
<!-- a&#45;&gt;b -->
<g id="edge1" class="edge">
<title>a&#45;&gt;b</title>
<path fill="none" stroke="black" d="M51.22,-33.29C63.8,-37.78 79.53,-43.4 93.32,-48.33"/>
<polygon fill="black" stroke="black" points="92.35,-51.7 102.94,-51.77 94.7,-45.11 92.35,-51.7"/>
<text text-anchor="middle" x="77" y="-46.8" font-family="Times,serif" font-size="14.00">2</text>
</g>
<!-- c -->
<g id="node3" class="node">
<title>c</title>
<ellipse fill="none" stroke="black" cx="227" cy="-18" rx="27" ry="18"/>
<text text-anchor="middle" x="227" y="-14.3" font-family="Times,serif" font-size="14.00">c</text>
</g>
<!-- a&#45;&gt;c -->
<g id="edge2" class="edge">
<title>a&#45;&gt;c</title>
<path fill="none" stroke="black" d="M53.61,-21.9C67.35,-20.39 84.57,-18.75 100,-18 130.21,-16.54 164.53,-16.65 189.72,-17.07"/>
<polygon fill="black" stroke="black" points="189.86,-20.57 199.92,-17.26 189.99,-13.57 189.86,-20.57"/>
<text text-anchor="middle" x="127" y="-21.8" font-family="Times,serif" font-size="14.00">7</text>
</g>
<!-- b&#45;&gt;c -->
<g id="edge3" class="edge">
<title>b&#45;&gt;c</title>
<path fill="none" stroke="black" d="M150.24,-50.47C163.27,-44.88 179.94,-37.74 194.33,-31.57"/>
<polygon fill="black" stroke="black" points="196.04,-34.65 203.85,-27.49 193.28,-28.21 196.04,-34.65"/>
<text text-anchor="middle" x="177" y="-43.8" font-family="Times,serif" font-size="14.00">4</text>
</g>
<!-- d -->
<g id="node4" class="node">
<title>d</title>
<ellipse fill="none" stroke="black" cx="327" cy="-45" rx="27" ry="18"/>
<text text-anchor="middle" x="327" y="-41.3" font-family="Times,serif" font-size="14.00">d</text>
</g>
<!-- c&#45;&gt;d -->
<g id="edge4" class="edge">
<title>c&#45;&gt;d</title>
<path fill="none" stroke="black" d="M252.22,-24.67C264.24,-27.98 278.95,-32.04 292.07,-35.65"/>
<polygon fill="black" stroke="black" points="291.14,-39.03 301.71,-38.31 293,-32.28 291.14,-39.03"/>
<text text-anchor="middle" x="277" y="-35.8" font-family="Times,serif" font-size="14.00">2</text>
</g>
<!-- d&#45;&gt;b -->
<g id="edge5" class="edge">
<title>d&#45;&gt;b</title>
<path fill="none" stroke="black" d="M300.44,-48.77C294.4,-49.59 287.98,-50.38 282,-51 241.96,-55.13 195.86,-57.51 164.61,-58.77"/>
<polygon fill="black" stroke="black" points="164.07,-55.29 154.22,-59.18 164.34,-62.29 164.07,-55.29"/>
<text text-anchor="middle" x="227" y="-60.8" font-family="Times,serif" font-size="14.00">1</text>
</g>
</g>
</svg>
