<?xml version="1.0" encoding="UTF-8" standalone="no"?>
<!DOCTYPE svg PUBLIC "-//W3C//DTD SVG 1.1//EN"
 "http://www.w3.org/Graphics/SVG/1.1/DTD/svg11.dtd">
<!-- Generated by graphviz version 2.43.0 (0)
 -->
<!-- Title: %3 Pages: 1 -->
<svg width="332pt" height="90pt"
 viewBox="0.00 0.00 332.00 90.00" xmlns="http://www.w3.org/2000/svg" xmlns:xlink="http://www.w3.org/1999/xlink">
<g id="graph0" class="graph" transform="scale(1 1) rotate(0) translate(4 86)">
<title>%3</title>
<polygon fill="white" stroke="transparent" points="-4,4 -4,-86 328,-86 328,4 -4,4"/>
<!-- a -->
<g id="node1" class="node">
<title>a</title>
<ellipse fill="none" stroke="black" cx="27" cy="-41" rx="27" ry="18"/>
<text text-anchor="middle" x="27" y="-37.3" font-family="Times,serif" font-size="14.00">a</text>
</g>
<!-- b -->
<g id="node2" class="node">
<title>b</title>
<ellipse fill="none" stroke="black" cx="117" cy="-18" rx="27" ry="18"/>
<text text-anchor="middle" x="117" y="-14.3" font-family="Times,serif" font-size="14.00">b</text>
</g>
<!-- a&#45;&gt;b -->
<g id="edge1" class="edge">
<title>a&#45;&gt;b</title>
<path fill="none" stroke="black" d="M52.51,-34.59C61.57,-32.23 72.01,-29.5 81.78,-26.95"/>
<polygon fill="black" stroke="black" points="82.83,-30.29 91.62,-24.37 81.06,-23.51 82.83,-30.29"/>
</g>
<!-- c -->
<g id="node3" class="node">
<title>c</title>
<ellipse fill="none" stroke="black" cx="207" cy="-64" rx="27" ry="18"/>
<text text-anchor="middle" x="207" y="-60.3" font-family="Times,serif" font-size="14.00">c</text>
</g>
<!-- a&#45;&gt;c -->
<g id="edge2" class="edge">
<title>a&#45;&gt;c</title>
<path fill="none" stroke="black" d="M53.88,-44.34C84.55,-48.31 135.83,-54.93 170.27,-59.38"/>
<polygon fill="black" stroke="black" points="170.01,-62.88 180.37,-60.69 170.91,-55.94 170.01,-62.88"/>
</g>
<!-- b&#45;&gt;c -->
<g id="edge3" class="edge">
<title>b&#45;&gt;c</title>
<path fill="none" stroke="black" d="M138.85,-28.9C150.03,-34.74 164,-42.04 176.29,-48.47"/>
<polygon fill="black" stroke="black" points="174.81,-51.65 185.29,-53.18 178.05,-45.44 174.81,-51.65"/>
</g>
<!-- d -->
<g id="node4" class="node">
<title>d</title>
<ellipse fill="none" stroke="black" cx="297" cy="-41" rx="27" ry="18"/>
<text text-anchor="middle" x="297" y="-37.3" font-family="Times,serif" font-size="14.00">d</text>
</g>
<!-- c&#45;&gt;d -->
<g id="edge4" class="edge">
<title>c&#45;&gt;d</title>
<path fill="none" stroke="black" d="M232.51,-57.59C241.57,-55.23 252.01,-52.5 261.78,-49.95"/>
<polygon fill="black" stroke="black" points="262.83,-53.29 271.62,-47.37 261.06,-46.51 262.83,-53.29"/>
</g>
<!-- d&#45;&gt;b -->
<g id="edge5" class="edge">
<title>d&#45;&gt;b</title>
<path fill="none" stroke="black" d="M270.37,-37.69C239.82,-33.74 188.55,-27.12 154.02,-22.65"/>
<polygon fill="black" stroke="black" points="154.25,-19.15 143.88,-21.34 153.35,-26.1 154.25,-19.15"/>
</g>
</g>
</svg>
